<?xml version="1.0" encoding="utf-8"?>
<!-- Generator: Adobe Illustrator 22.0.0, SVG Export Plug-In . SVG Version: 6.00 Build 0)  -->
<svg version="1.1" xmlns="http://www.w3.org/2000/svg" xmlns:xlink="http://www.w3.org/1999/xlink" x="0px" y="0px"
	 width="1418.332px" height="1424.479px" viewBox="0 0 1418.332 1424.479" enable-background="new 0 0 1418.332 1424.479"
	 xml:space="preserve">
<g id="Layer_6">
	<g>
		<polygon fill="#FFFFFF" points="284.176,1419.166 297.71,1419.166 297.71,1398.38 319.535,1398.38 319.535,1388.703 
			297.71,1388.703 297.71,1376.699 321.733,1376.699 321.733,1366.987 284.176,1366.987 		"/>
		<polygon fill="#FFFFFF" points="356.69,1366.987 343.156,1366.987 343.156,1419.166 380.249,1419.166 380.249,1409.49 
			356.69,1409.49 		"/>
		<path fill="#FFFFFF" d="M434.987,1369.424c-3.728-2.102-7.969-3.154-12.724-3.154c-4.807,0-9.094,1.063-12.859,3.19
			c-3.766,2.126-6.658,5.143-8.676,9.048c-2.018,3.906-3.026,8.417-3.026,13.53v2.938c0.102,4.922,1.188,9.283,3.258,13.08
			c2.069,3.799,4.955,6.72,8.657,8.762c3.702,2.043,7.943,3.065,12.724,3.065c4.782,0,9.042-1.057,12.783-3.172
			c3.74-2.114,6.625-5.13,8.656-9.048c2.031-3.918,3.047-8.423,3.047-13.511v-2.401c-0.026-5.017-1.074-9.466-3.142-13.349
			C441.612,1374.518,438.714,1371.526,434.987,1369.424z M433.059,1394.366c-0.026,5.066-0.964,8.948-2.815,11.648
			s-4.486,4.05-7.905,4.05c-3.599,0-6.311-1.374-8.136-4.121s-2.737-6.678-2.737-11.791l0.039-3.835
			c0.386-9.46,3.972-14.191,10.758-14.191c3.47,0,6.137,1.344,8.001,4.032c1.864,2.687,2.795,6.624,2.795,11.807V1394.366z"/>
		<path fill="#FFFFFF" d="M505.302,1369.424c-3.728-2.102-7.969-3.154-12.724-3.154c-4.807,0-9.094,1.063-12.859,3.19
			c-3.766,2.126-6.658,5.143-8.676,9.048c-2.018,3.906-3.026,8.417-3.026,13.53v2.938c0.102,4.922,1.188,9.283,3.258,13.08
			c2.069,3.799,4.955,6.72,8.657,8.762c3.702,2.043,7.943,3.065,12.724,3.065c4.782,0,9.042-1.057,12.783-3.172
			c3.74-2.114,6.625-5.13,8.656-9.048c2.031-3.918,3.047-8.423,3.047-13.511v-2.401c-0.026-5.017-1.074-9.466-3.142-13.349
			C511.928,1374.518,509.029,1371.526,505.302,1369.424z M503.374,1394.366c-0.026,5.066-0.964,8.948-2.815,11.648
			s-4.486,4.05-7.905,4.05c-3.599,0-6.311-1.374-8.136-4.121c-1.825-2.747-2.737-6.678-2.737-11.791l0.039-3.835
			c0.386-9.46,3.972-14.191,10.758-14.191c3.47,0,6.137,1.344,8,4.032c1.864,2.687,2.795,6.624,2.795,11.807V1394.366z"/>
		<path fill="#FFFFFF" d="M580.881,1391.76c1.581-2.387,2.372-5.393,2.372-9.022c0-5.011-1.877-8.889-5.63-11.634
			s-8.958-4.117-15.616-4.117h-22.094v52.179h13.534v-18.457h7.327l9.909,18.457h14.498v-0.538l-11.722-21.068
			C576.826,1396.08,579.301,1394.147,580.881,1391.76z M567.81,1389.147c-1.299,1.258-3.233,1.886-5.803,1.886h-8.56v-14.37h8.56
			c2.545,0,4.473,0.641,5.784,1.922c1.311,1.281,1.966,3.048,1.966,5.299C569.757,1386.136,569.108,1387.889,567.81,1389.147z"/>
		<path fill="#FFFFFF" d="M641.615,1392.539c2.596-0.907,4.563-2.317,5.899-4.229c1.336-1.912,2.005-4.217,2.005-6.916
			c0-4.683-1.884-8.255-5.649-10.716c-3.766-2.46-9.26-3.69-16.483-3.69H607.22v52.179h22.788
			c6.838-0.049,11.998-1.357,15.482-3.925c3.483-2.567,5.224-6.408,5.224-11.521c0-2.819-0.784-5.209-2.352-7.168
			C646.794,1394.593,644.545,1393.255,641.615,1392.539z M620.754,1376.663h6.633c3.033,0,5.23,0.485,6.593,1.455
			c1.362,0.97,2.043,2.558,2.043,4.762c0,1.917-0.63,3.367-1.889,4.35c-1.26,0.982-3.368,1.485-6.324,1.51h-7.056V1376.663z
			 M635.253,1407.93c-1.311,1.04-3.188,1.56-5.63,1.56h-8.868v-12.507h9.486c4.652,0.023,6.979,2.209,6.979,6.558
			C637.219,1405.429,636.564,1406.891,635.253,1407.93z"/>
		<path fill="#FFFFFF" d="M690.184,1366.987l-20.591,52.179h14.46l3.239-9.748h18.547l3.278,9.748h14.536l-20.745-52.179H690.184z
			 M690.531,1399.706l6.015-18.097l6.054,18.097H690.531z"/>
		<polygon fill="#FFFFFF" points="757.067,1366.987 743.533,1366.987 743.533,1419.166 780.626,1419.166 780.626,1409.49 
			757.067,1409.49 		"/>
		<polygon fill="#FFFFFF" points="815.661,1366.987 802.127,1366.987 802.127,1419.166 839.22,1419.166 839.22,1409.49 
			815.661,1409.49 		"/>
		<path fill="#FFFFFF" d="M910.831,1379.601c1.568-2.341,4.035-3.512,7.403-3.512c3.316,0,5.784,0.693,7.404,2.079
			c1.619,1.385,2.48,3.667,2.583,6.844h13.495c-0.565-5.853-2.918-10.446-7.056-13.779c-4.139-3.333-9.614-5-16.426-5
			c-4.73,0-8.894,1.046-12.493,3.135c-3.599,2.091-6.356,5.053-8.271,8.888c-1.915,3.835-2.872,8.308-2.872,13.421v2.58
			c0,8.148,2.121,14.456,6.362,18.922c4.241,4.469,10.05,6.703,17.428,6.703c4.472,0,8.451-0.766,11.933-2.294
			c3.483-1.528,6.189-3.685,8.117-6.469c1.928-2.782,2.981-5.99,3.162-9.622h-13.458c-0.103,2.964-0.977,5.124-2.622,6.487
			c-1.646,1.362-4.023,2.043-7.133,2.043c-3.676,0-6.266-1.195-7.769-3.585c-1.504-2.388-2.256-6.366-2.256-11.933v-3.692
			C908.441,1385.683,909.263,1381.944,910.831,1379.601z"/>
		<polygon fill="#FFFFFF" points="977.329,1366.987 963.795,1366.987 963.795,1419.166 1000.889,1419.166 1000.889,1409.49 
			977.329,1409.49 		"/>
		<path fill="#FFFFFF" d="M1051.964,1401.068c0,3.225-0.72,5.554-2.159,6.987c-1.44,1.434-3.561,2.151-6.363,2.151
			c-5.552,0-8.406-2.855-8.56-8.566v-34.654h-13.611v34.403c0.077,5.734,2.082,10.25,6.015,13.547
			c3.933,3.297,9.318,4.945,16.156,4.945c4.525,0,8.445-0.741,11.761-2.222c3.316-1.481,5.86-3.638,7.634-6.469
			c1.774-2.83,2.661-6.182,2.661-10.051v-34.153h-13.534V1401.068z"/>
		<path fill="#FFFFFF" d="M1130.878,1396.552c-1.568-1.959-3.818-3.297-6.748-4.014c2.596-0.907,4.563-2.317,5.899-4.229
			c1.337-1.912,2.005-4.217,2.005-6.916c0-4.683-1.884-8.255-5.649-10.716c-3.766-2.46-9.26-3.69-16.483-3.69h-20.167v52.179h22.788
			c6.838-0.049,11.998-1.357,15.482-3.925c3.483-2.567,5.224-6.408,5.224-11.521
			C1133.23,1400.901,1132.446,1398.511,1130.878,1396.552z M1103.27,1376.663h6.632c3.033,0,5.23,0.485,6.593,1.455
			c1.362,0.97,2.043,2.558,2.043,4.762c0,1.917-0.63,3.367-1.889,4.35c-1.26,0.982-3.368,1.485-6.324,1.51h-7.056V1376.663z
			 M1117.768,1407.93c-1.312,1.04-3.188,1.56-5.63,1.56h-8.868v-12.507h9.486c4.652,0.023,6.979,2.209,6.979,6.558
			C1119.734,1405.429,1119.079,1406.891,1117.768,1407.93z"/>
	</g>
</g>
<g id="Layer_5">
	<g>
		<path fill="#FFFFFF" d="M375.078,588.786H102.296l247.446,315.466h-30.61L10.525,548.827h359.351
			C372.411,566.865,374.067,577.796,375.078,588.786z"/>
		<path fill="#FFFFFF" d="M1415.532,548.827L1109.02,904.252h-26.229l245.761-315.466H1092.55
			c3.268-10.301,0.762-25.877-3.18-39.959H1415.532z"/>
		<path fill="#FFFFFF" d="M376.294,612.612c0.147,6.228,0.234,12.953,0.044,20.236H215.066l143.131,207.663L161.407,612.612H376.294
			z"/>
		<path fill="#FFFFFF" d="M1077.398,840.511l143.131-207.663h-148.421c-3.824-8.587-7.883-14.917-8.426-20.236h205.143
			L1077.398,840.511z"/>
	</g>
</g>
<g id="Layer_7">
	<g>
		<path fill="#FFFFFF" d="M4.781,904.252c1.436,154.941-1.436,361.168,0,516.11c233.071-76.401,462.948-135.57,707.991-135.57
			c249.629,0,425.964,54.861,694.408,139.688V904.252H4.781z M117.287,1283.004c14.609-5.099,17.906-8.132,21.525-16.031
			c1.524-3.282,4.03-4.586,5.89-4.704c2.74-0.19,4.645,2.007,4.616,5.348c-0.117,15.342-0.234,30.683-0.352,46.025
			c-30.977,10.301-61.733,21.496-92.241,33.57c20.837-122.001,42.494-236.295,64.664-343.98c-4.967,0.205-9.935,0.396-14.902,0.601
			c-21.936,1.128-25.101,3.15-29.16,11.429c-1.524,3.121-4.074,3.868-5.949,3.561c-2.784-0.484-4.733-3.356-4.733-6.975
			c0.014-16.69,0.029-33.38,0.044-50.07c30.728-0.015,61.455-0.029,92.182-0.029c-22.493,103.172-44.575,212.498-65.997,329.063
			C100.993,1288.147,109.14,1285.553,117.287,1283.004z M276.976,1275.956c-11.21,2.813-22.404,5.729-33.57,8.748
			c-1.436,0.396-2.667-0.015-3.37-1.084c-1.011-1.465-1.07-4.454,0.542-6.667c4.85-6.594,6.755-14.272,6.609-26.683
			c-2.037-26.288-4.074-52.736-6.125-79.332c-9.905,8.381-19.811,16.983-29.672,25.819c-2.198,21.555-4.396,43.226-6.565,65.016
			c-0.396,12.499,1.304,19.342,5.964,23.372c1.553,1.392,1.421,4.498,0.381,6.579c-0.733,1.509-2.022,2.638-3.458,3.063
			c-11.107,3.268-22.185,6.638-33.233,10.125c-1.626,0.513-3.092,0.103-4-1.187c-1.451-2.037-1.612-6.535,0.454-9.949
			c3.766-6.183,5.392-11.927,7.62-26.668c7.62-79.053,15.327-156.626,23.123-232.808c0.996-11.854,2.037-21.115,2.887-28.588
			c0.366-3.385,0.733-6.755,1.099-10.14c1.158-11.649,0.967-16.587-2.52-21.056c-2.198-2.872-1.876-7.678-0.249-10.36
			c1.377-2.213,3.253-2.564,4.279-2.579c15.723-0.044,31.431-0.088,47.139-0.132c1.201-0.044,2.96,0.308,4.279,2.374
			c1.568,2.55,1.773,7.092-0.498,9.92c-4.792,5.949-4.469,9.642-2.564,33.292c0.542,6.506,1.216,14.448,1.861,24.28
			c0.029,0.278,0.059,0.542,0.088,0.821c-0.015,0.015-0.029,0.029-0.059,0.044c5.495,71.727,10.96,142.31,16.411,211.824
			c1.846,11.825,3.429,16.25,7.034,19.855c0.073,2.945,0.146,5.905,0.234,8.85C280.082,1274.388,278.631,1275.545,276.976,1275.956z
			 M394.83,1063.413c-0.352,24.002-10.799,44.472-28.617,56.898c-0.073,0.044-0.147,0.088-0.22,0.147
			c-10.565,7.678-21.144,15.547-31.709,23.621c-0.366,24.925-0.747,49.85-1.114,74.789c-0.029,22.756,1.333,27.738,5.729,32.12
			c2.139,2.051,1.817,6.183,0.22,8.777c-1.319,2.169-3.194,2.857-4.176,3.063c-10.843,2.33-21.657,4.748-32.442,7.283
			c-0.982,0.234-2.843,0.381-4.103-1.275c-1.524-1.964-1.714-6.154,0.44-9.187c4.572-6.433,6.052-11.942,6.74-34.479
			c1.128-77.353,2.271-154.707,3.399-232.075c-0.308-11.048-1.539-15.752-5.099-20.045c-2.095-2.564-1.773-6.77-0.176-9.114
			c0.952-1.451,2.462-2.242,4.176-2.242h42.318c25.452,0.176,45.747,26.566,45.278,58.847
			C395.255,1034.84,395.05,1049.126,394.83,1063.413z M512.069,1184.316c-0.308,27.474-19.87,51.93-43.578,55.242
			c-5.099,0.689-10.199,1.392-15.298,2.125c-23.694,3.531-42.509-16.704-42.084-45.835c0.894-60.532,1.788-121.078,2.667-181.625
			c0.44-29.116,19.811-52.678,43.241-52.56h15.151c23.43,0.103,42.201,22.507,41.893,49.967
			C513.403,1069.187,512.729,1126.758,512.069,1184.316z M622.275,1223.659c-0.967,1.26-2.55,2.037-4.235,2.125
			c-11.078,0.542-22.155,1.187-33.219,1.934c-1.685,0.117-3.209-0.484-4.205-1.641c-1.568-1.89-1.744-5.539,0.425-7.869
			c5.202-5.612,6.301-11.254,6.682-33.746c0.176-23.181,0.352-46.362,0.528-69.558c0.073-8.572-5.686-15.825-13.041-16.616
			c-5.861,3.106-11.722,6.242-17.598,9.407c-0.249,26.244-0.484,52.487-0.733,78.731c0,22.654,1.055,28.222,6.154,33.087
			c2.139,2.022,1.846,5.715,0.249,7.869c-0.953,1.29-2.491,2.139-4.235,2.286c-11.034,0.908-22.067,1.92-33.101,3.048
			c-1.729,0.176-3.253-0.396-4.176-1.539c-1.568-1.89-1.788-5.597,0.396-8.03c5.217-5.847,6.374-11.664,6.828-34.493
			c0.718-66.452,1.436-132.918,2.154-199.369c-0.425-9.73-1.627-13.832-5.217-17.657c-2.095-2.257-1.846-5.949-0.264-8.001
			c0.996-1.275,2.506-1.964,4.161-1.964h42.377c25.394,0.044,46.011,22.038,45.864,49.014c-0.059,11.429-0.132,22.859-0.19,34.273
			c-0.088,13.935-5.011,26.17-14.272,35.578c7.986,8.704,12.572,20.778,12.499,33.438c-0.132,23.064-0.264,46.128-0.396,69.206
			c0.073,22.243,1.099,27.738,6.228,32.735C624.092,1217.974,623.857,1221.607,622.275,1223.659z M675.363,1015.6v0.41
			c-0.029,0.044-0.059,0.088-0.088,0.132c-0.103,55.095-0.22,110.191-0.322,165.286c0.161,22.155,1.231,27.665,6.389,32.75
			c2.169,2.154,1.934,5.729,0.352,7.737c-0.982,1.231-2.521,1.949-4.25,1.964c-11.063,0.176-22.141,0.44-33.218,0.821
			c-1.714,0.059-3.253-0.586-4.22-1.773c-1.582-1.934-1.802-5.51,0.381-7.781c5.011-5.158,6.228-10.917,6.579-30.845
			c0.234-62.144,0.483-124.302,0.718-186.445c-0.396-17.613-1.905-22.053-6.242-26.449c-2.125-2.154-1.89-5.744-0.352-7.737
			c1.304-1.685,3.165-1.949,4.161-1.949c10.873-0.059,21.76-0.103,32.647-0.161c1.656,0.146,3.194,0.689,4.162,1.89
			c1.568,1.978,1.802,5.554-0.337,7.752C675.832,977.224,675.319,983.964,675.363,1015.6z M760.072,1194.514
			c15.195,0.044,18.565-1.319,22.243-6.257c1.539-2.066,4.132-2.403,6.052-2.022c2.857,0.557,4.85,2.711,4.865,5.216
			c0.073,11.532,0.132,23.064,0.205,34.581c-32.193-1.641-64.43-2.388-96.666-2.257c22.067-77.456,43.783-154.399,65.148-231.958
			c-4.997-0.015-9.979-0.044-14.976-0.059c-22.053,0.103-25.247,1.436-29.291,7.033c-1.538,2.11-4.103,2.535-5.993,2.242
			c-2.813-0.454-4.777-2.491-4.777-4.982c0-11.459,0-22.932-0.015-34.391h92.182c-21.144,78.145-42.596,155.205-64.415,232.28
			C743.118,1194.074,751.588,1194.265,760.072,1194.514z M919.395,1235.059c-1.26,1.48-3.033,1.495-3.986,1.392
			c-10.418-1.275-20.851-2.432-31.284-3.517c-0.952-0.088-2.74-0.513-4.044-2.257c-1.627-2.183-1.964-5.934,0.132-8.059
			c4.308-4.352,5.173-9.173,5.114-28.676c-0.234-21.159-0.469-42.318-0.703-63.492c-11.561,5.729-23.137,11.444-34.728,17.159
			c0.088,9.656,0.176,19.313,0.264,28.984c0.293,31.006,0.352,37.453,5.861,43.842c2.11,2.447,1.846,6.213,0.278,8.03
			c-1.26,1.48-3.033,1.568-3.986,1.495c-10.418-0.894-20.837-1.671-31.255-2.374c-0.952-0.059-2.74-0.41-4.03-2.066
			c-1.597-2.052-1.934-5.803,0.147-7.913c4.205-4.308,5.129-9.026,5.202-26.522c-0.484-62.114-0.967-124.229-1.436-186.343
			c-0.395-22.478-1.494-28.09-6.623-33.321c-2.139-2.213-1.949-5.832-0.396-7.839c0.938-1.231,2.447-1.949,4.147-1.949
			c10.873,0.015,21.76,0.015,32.632,0.015c1.685,0,3.209,0.718,4.176,1.963c1.582,2.022,1.846,5.7-0.278,7.913
			c-4.85,5.085-5.979,10.917-6.052,31.24c0.337,36.794,0.689,73.588,1.026,110.381c11.561-5.847,23.122-11.693,34.654-17.569
			c-0.322-29.995-0.659-59.99-0.996-89.984c-0.454-22.917-1.583-28.647-6.726-33.98c-2.154-2.257-1.964-5.934-0.44-7.986
			c0.938-1.26,2.462-1.978,4.147-1.978h32.647c1.685,0,3.209,0.733,4.176,2.022c1.583,2.081,1.861,5.847-0.249,8.103
			c-4.894,5.275-5.949,10.946-5.964,32.002c0.762,59.33,1.509,118.66,2.257,178.005c0.381,31.724,0.469,38.303,6.008,45.043
			C921.226,1229.432,920.977,1233.198,919.395,1235.059z M997.906,1215.688c15.034,1.861,18.36,0.762,21.936-4.279
			c1.509-2.095,4.059-2.169,5.978-1.539c2.813,0.938,4.821,3.546,4.865,6.316c0.191,12.777,0.381,25.54,0.572,38.303
			c-31.797-6.022-63.726-11.166-95.743-15.415c20.807-78.965,41.351-160.085,61.748-244.457c-4.997-0.103-9.979-0.19-14.961-0.293
			c-22.023-0.234-25.189,1.158-29.159,7.063c-1.509,2.213-4.059,2.608-5.964,2.257c-2.813-0.528-4.806-2.755-4.836-5.392
			c-0.161-12.191-0.322-24.383-0.484-36.574c30.713,0,61.44,0.015,92.168,0.015c-20.324,86.819-40.721,169.902-61.352,250.377
			C981.099,1213.226,989.495,1214.427,997.906,1215.688z M1155.177,1280.366c-1.231,1.583-2.975,1.407-3.912,1.158
			c-10.213-2.682-20.441-5.275-30.698-7.781c-0.938-0.22-2.696-0.923-3.986-3.077c-1.612-2.711-1.963-7.048,0.088-9.231
			c4.205-4.498,5.026-9.949,4.865-32.383c-0.352-24.353-0.703-48.707-1.04-73.075c-11.4,5.715-22.8,11.298-34.215,16.778
			c0.161,10.975,0.323,21.95,0.484,32.94c0.527,35.167,0.63,42.45,6.11,50.377c2.095,3.033,1.861,7.268,0.337,9.158
			c-1.231,1.524-2.989,1.407-3.912,1.187c-10.257-2.301-20.514-4.513-30.801-6.623c-0.938-0.191-2.696-0.821-3.985-2.828
			c-1.597-2.491-1.949-6.726,0.073-8.836c4.117-4.293,4.982-9.466,4.879-29.072c-1.055-69.675-2.11-139.35-3.15-209.04
			c-0.601-25.218-1.758-31.533-6.916-37.409c-2.183-2.491-2.007-6.521-0.484-8.763c0.923-1.392,2.432-2.183,4.118-2.183
			c10.887,0,21.76,0.015,32.647,0.015c1.685,0,3.209,0.806,4.191,2.242c1.583,2.301,1.875,6.491-0.22,9.012
			c-4.865,5.817-5.891,12.089-5.817,35.416c0.615,41.761,1.245,83.522,1.861,125.298c11.415-5.817,22.829-11.752,34.229-17.818
			c-0.498-34.523-0.996-69.045-1.48-103.553c-0.586-26.39-1.744-32.999-6.902-39.153c-2.169-2.594-2.007-6.828-0.498-9.173
			c0.938-1.436,2.447-2.271,4.132-2.271c10.887,0,21.774,0,32.647,0.015c1.685,0,3.209,0.85,4.191,2.345
			c1.583,2.418,1.876,6.828-0.234,9.466c-4.865,6.11-5.905,12.69-5.832,37.189c0.952,69.016,1.89,138.032,2.843,207.048
			c0.498,36.911,0.601,44.56,6.052,53.015C1156.95,1274.036,1156.715,1278.388,1155.177,1280.366z M1219.679,1298.536
			c-0.938,1.289-2.418,1.729-4.073,1.231c-10.711-3.268-21.452-6.418-32.207-9.466c-1.67-0.469-3.18-1.773-4.147-3.561
			c-1.568-2.887-1.846-7.4,0.234-9.554c4.762-4.909,5.847-11.766,5.817-36.647c-0.938-77.837-1.876-155.659-2.799-233.496
			c-0.718-22.067-2.315-27.665-6.726-33.189c-2.169-2.711-2.022-7.165-0.513-9.642c1.275-2.095,3.136-2.418,4.117-2.418
			c10.887-0.059,21.76-0.132,32.647-0.19c1.729,0.19,3.209,0.879,4.191,2.447c1.597,2.564,1.89,7.209-0.22,10.023
			c-5.803,7.722-6.198,16.324-5.656,57.015v0.542c-0.029,0.059-0.044,0.103-0.073,0.161c0.747,70.848,1.495,141.71,2.256,212.557
			c0.498,28.559,1.627,35.944,6.697,44.076C1221.35,1291.869,1221.174,1296.441,1219.679,1298.536z M1350.004,1343.506
			c-0.894,1.407-2.301,1.832-3.898,1.202c-10.873-4.249-21.774-8.396-32.706-12.44c-1.407-0.513-2.623-1.802-3.385-3.517
			c-0.967-2.344-1.07-5.802,0.484-7.282c4.66-4.396,6.389-12.162,6.052-26.698c-2.447-31.768-4.894-63.33-7.37-94.659
			c-9.671,5.304-19.342,10.448-29.013,15.444c-1.788,22.375-3.575,44.633-5.363,66.759c-0.161,13.202,1.671,21.584,6.359,28.954
			c1.583,2.52,1.495,5.832,0.498,7.414c-0.703,1.158-1.964,1.539-3.37,1.055c-10.99-3.795-21.994-7.473-33.028-11.034
			c-1.626-0.527-3.106-1.89-4.03-3.766c-1.509-2.989-1.744-7.59,0.264-9.759c3.663-3.942,5.202-8.777,7.121-22.58
			c6.213-76.533,12.499-154.546,18.917-234.112c0.776-12.411,1.641-22.141,2.374-30.009c0.293-3.575,0.601-7.136,0.908-10.711
			c0.953-12.338,0.659-17.657-2.901-22.492c-2.257-3.092-2.081-8.132-0.44-10.96c1.275-2.345,3.194-2.725,4.235-2.725
			c15.708-0.044,31.416-0.088,47.139-0.147c1.143-0.146,2.901,0.352,4.308,2.784c1.612,2.975,1.89,8.352-0.337,11.591
			c-4.689,6.858-4.308,11.004-2.007,38.728c0.63,7.634,1.377,16.998,2.242,28.617c0.015,0.293,0.029,0.601,0.044,0.908v0.044
			c6.638,84.9,13.129,171.382,19.474,259.549c1.964,15.386,3.575,21.906,7.136,28.749
			C1351.703,1336.282,1351.454,1341.279,1350.004,1343.506z"/>
		<path fill="#FFFFFF" d="M216.004,1152.02c7.4-6.301,14.814-12.484,22.243-18.536c-2.843-37.146-5.7-74.584-8.572-112.36
			C225.104,1064.307,220.547,1107.929,216.004,1152.02z"/>
		<path fill="#FFFFFF" d="M571.941,992.287c-4.425,0.044-8.836,0.073-13.246,0.117c-0.264,27.167-0.513,54.319-0.762,81.471
			c7.312-3.898,14.638-7.737,21.95-11.547c6.872-4.03,10.199-9.524,10.257-16.866c0.088-11.488,0.161-22.991,0.249-34.479
			C590.463,1000.581,582.169,992.199,571.941,992.287z"/>
		<path fill="#FFFFFF" d="M471.744,993.518c-5.055,0.088-10.111,0.161-15.166,0.249c-8.089,0.117-15.078,9.129-15.224,19.635
			c-0.835,59.594-1.671,119.203-2.52,178.796c-0.147,10.506,6.623,18.448,14.799,17.393c5.085-0.659,10.184-1.29,15.283-1.905
			c8.162-0.982,15.195-10.448,15.327-20.675c0.733-58.26,1.48-116.521,2.213-174.781
			C486.587,1002.002,479.847,993.416,471.744,993.518z"/>
		<path fill="#FFFFFF" d="M1283.962,1168.798c7.239-4.088,14.492-8.264,21.73-12.543c-3.443-43.212-6.916-86.013-10.433-128.419
			C1291.45,1075.37,1287.699,1122.348,1283.962,1168.798z"/>
		<path fill="#FFFFFF" d="M349.684,995.833c-4.396,0.102-8.792,0.205-13.173,0.322c-0.557,36.31-1.099,72.635-1.641,108.96
			c7.297-5.392,14.594-10.682,21.906-15.884c6.828-5.744,10.272-13.73,10.418-23.972c0.22-14.551,0.44-29.101,0.66-43.651
			C368.074,1007.424,359.736,995.628,349.684,995.833z"/>
	</g>
</g>
<g id="Layer_4">
	<g id="Layer_3">
		<g>
			<path fill="#FFFFFF" d="M1030.677,437.825h14.594c1.639,0,3.156-0.853,3.989-2.266c2.612-4.434,8.163-14.51,9.615-22.358
				c1.97-10.368,3.94-34.369,0-39.553c-3.836-5.184-6.428-16.796-7.776-23.949c-1.244-7.154,2.592-25.919-0.622-36.287
				c-3.214-10.368-9.746-40.175-17.521-57.644c-7.776-17.521-26.541-52.512-35.613-64.176c-9.642-12.39-22.861-31.362-45.981-50.543
				c-13.323-11.042-29.652-24.779-55.104-34.369c-10.526-3.941-19.849-6.145-26.894-7.477c-1.059-0.2-1.969-0.734-2.651-1.568
				c-6.548-7.99-15.438-17.958-26.803-28.486c-8.346-7.724-23.534-21.669-46.655-35.043c-27.008-15.552-50.283-22.031-57.696-23.949
				c-26.178-6.791-46.707-7.05-62.88-7.154c-53.031-0.259-93.154,13.063-108.861,18.817c-18.869,6.946-38.672,14.204-60.858,31.103
				c-27.837,21.098-42.663,44.529-51.216,58.318c-19.284,31.103-26.541,58.422-33.073,83.564
				c-5.028,19.647-8.813,40.071-13.582,93.309c-5.391,60.236-8.087,90.355-7.776,128.974
				c0.674,82.268,12.338,157.434,12.338,157.485c4.303,28.148,10.264,58.422,5.184,100.411c-1.97,16.226-5.132,30.222-8.19,41.315
				c0,0-1.607,5.962-3.525,11.819c-7.701,23.982-27.444,58.07-37.521,74.718c-2.184,3.608,1.185,8.005,5.243,6.854
				c4.496-1.275,9.493-2.936,14.809-5.11c8.657-3.525,32.451-14.204,53.757-38.205c4.51-5.08,18.092-21.046,29.185-49.921
				c12.389-32.192,13.945-60.029,14.256-97.197c0.778-86.311-5.702-137.217-0.622-137.994c3.732-0.622,6.273,27.733,27.163,72.574
				c12.908,27.526,16.744,32.71,22.705,51.839c3.212,10.364,9.818,40.704,13.655,47.873c0.952,5.446,1.849,11.055,2.589,16.705
				c8.63,65.836-16.455,123.774-26.712,142.779c-21.291,39.417-57.997,67.77-88.622,91.215h155.088
				c4.396-18.36,7.796-34.742,10.037-45.849c12.144-60.105,8.535-120.972-9.443-175.195l8.313,8.745
				c0.208,0.218,0.39,0.459,0.546,0.716c2.261,3.718,4.367,7.527,7.381,10.666l37.25,38.8c0.141,0.147,0.291,0.287,0.448,0.418
				c1.874,1.552,3.855,2.97,5.928,4.244l49.759,30.566c9.47,42.23,20.465,64.454,14.331,126.888h25.746
				c1.337-33.203-2.904-76.042-21.455-115.908l33.599,18.301c0.218,0.119,0.414,0.246,0.611,0.398
				c2.671,2.065,23.873,18.256,41.464,25.425c19.023,7.753,36.936,27.219,63.477,25.871c12.787-0.599,30.84-2.429,47.501-5.03
				c-4.341,5.393-8.687,11.554-12.747,18.559c-6.579,11.371-10.96,22.434-13.876,32.383h60.473
				c-5.114-7.517-9.334-15.283-10.565-22.668c-1.926-11.53-4.294-22.456-4.953-31.619c10.037-2.158,18.202-4.598,22.294-7.177
				c12.338-7.776,32.399-25.245,36.287-33.695c3.888-8.398,12.338-29.133,12.338-45.981c0-14.081-3.621-39.932-4.81-48.041
				c-0.231-1.572,0.35-3.111,1.563-4.137c7.625-6.451,35.246-29.913,36.943-32.681c1.918-3.266,6.428-18.143,7.102-29.185
				c0.674-11.042-1.918-26.593-5.184-30.429c-1.91-2.304-4.689-7.906-6.667-12.161c-1.268-2.727,0.356-5.913,3.305-6.503
				l17.946-3.589c2.462-0.492,7.499-5.441,6.69-13.855l-23.621-139.286C1025.618,440.411,1027.802,437.825,1030.677,437.825z
				 M963.284,258.981c5.26-0.536,13.268-0.379,21.098,3.889c4.406,2.436,9.175,6.324,13.634,13.634
				c9.487,15.552,7.465,29.807,9.02,64.124c2.385,49.921,3.266,59.614,3.266,59.614c1.14,12.389,2.644,25.09-1.296,26.593
				c-4.562,1.659-10.42-13.789-27.215-20.735c-5.762-2.397-11.264-3.18-15.797-3.315c-2.419-0.072-4.347-2.011-4.441-4.429
				c-0.795-20.644-1.407-41.643-1.794-62.912c-0.491-24.345-0.703-48.318-0.636-71.876
				C959.13,261.193,960.921,259.222,963.284,258.981z M508.142,240.217c-24.52,44.84-35.25,81.853-38.879,95.227
				c-1.452,5.342-9.357,4.096-9.135-1.435c0.757-18.876,3.744-34.254,6.543-45.22c6.739-26.593,17.107-46.136,23.327-57.696
				c12.804-23.794,19.18-35.665,31.725-47.899c8.813-8.605,20.32-17.366,18.143-22.083c-1.089-2.333-5.443-3.007-8.398-2.592
				c-4.718,0.726-6.325,4.303-12.337,10.368c-6.376,6.532-11.508,11.664-17.522,11.716c-1.855,0-5.495-0.54-9.992-4.85
				c-1.014-0.972-1.58-2.331-1.464-3.73c1.454-17.569,6.997-47.571,28.978-73.739c14.204-16.899,30.014-25.971,43.441-33.695
				c26.334-15.137,50.076-20.943,62.206-23.327c7.569-1.504,38.723-7.154,78.38,0c6.664,1.188,12.648,2.586,17.824,3.978
				c4.278,1.15,4.638,7.066,0.548,8.767c-2.761,1.149-5.868,2.149-9.301,2.806c-7.724,1.503-10.108-0.052-24.001,0
				c-21.046,0.052-26.904,3.629-29.133,5.184c-4.51,3.162-9.849,8.968-8.398,12.338c1.451,3.473,9.901,3.11,21.979,1.918
				c1.289-0.122,2.635-0.254,4.036-0.398c5.295-0.545,7.24,6.804,2.337,8.876c-1.451,0.613-2.919,1.243-4.403,1.89
				c-26.956,11.767-70.811,31.466-110.831,72.574C537.586,186.149,524.005,211.084,508.142,240.217z M710.313,687.946
				c-29.496-11.042-31.122-9.13-39.066-12.319c-14.002-5.622-20.565-8.743-41.895-23.556
				c-21.469-14.909-28.657-15.067-51.435-28.625l-5.367-23.632c-9.419-29.042-15.691-46.974-19.083-59.624
				c-4.152-15.485-8.26-32.848-10.697-48.918c-1.763-11.664,0.674-9.746,0.674-36.909c-0.052-22.705-2.437-13.219-0.052-22.705
				c2.488-9.798,6.273-24.312,5.547-32.088c-0.881-9.331-6.272-14.204-10.368-20.735c-6.895-10.886-6.739-22.602-6.48-45.981
				c0.363-31,8.242-54.327,10.368-60.288c5.962-16.848,14.359-40.59,36.287-60.236c9.176-8.242,19.958-13.685,41.471-24.623
				c26.023-13.219,47.277-20.995,55.727-24.001c26.852-9.435,48.677-17.159,79.054-20.061c14.411-1.4,38.412-3.473,68.686,3.266
				c8.605,1.866,30.066,7.257,54.43,20.735c12.234,6.739,23.016,12.7,34.369,24.571c13.426,14.152,20.062,28.718,24.571,38.879
				c3.836,8.553,8.242,18.403,10.368,31.777c2.437,14.722-0.155,19.699-3.836,55.726c-1.763,17.055-3.059,29.859-3.266,46.655
				c-0.133,12.664,0.381,23.5,0.988,31.757c0.167,2.268-1.369,4.307-3.587,4.809c-39.703,8.989-61.307,7.969-73.862,4.905
				c-3.059-0.778-15.707-4.095-26.541,1.97c-4.251,2.332-9.953,7.05-9.123,10.99c1.037,4.821,11.353,6.272,17.521,7.154
				c10.627,1.451,17.573,0.466,35.665-1.348c21.409-2.074,27.785-2.281,31.103,1.97c2.281,2.955,2.436,7.309,1.244,10.368
				c-2.177,5.91-9.538,7.879-14.204,9.072c-10.109,2.54-14.619,0.311-30.481-0.674c-19.232-1.192-16.848,1.814-30.481,0
				c-11.094-1.452-19.492-4.355-23.328,0c-1.762,2.125-1.866,5.08-1.918,6.532c-0.207,6.532,4.51,11.042,5.184,11.612
				c3.784,3.525,7.828,3.266,25.919,3.266c8.45,0,16.848-0.208,25.245,0c10.627,0.311,12.908,0.777,17.521-0.674
				c3.473-1.037,6.273-2.54,7.776-1.244c1.607,1.348,1.14,5.495-0.622,8.398c-3.007,4.873-8.45,4.406-9.124,7.776
				c-0.57,2.955,3.162,5.91,3.94,6.48c3.888,3.11,7.413-0.259,12.96,1.918c2.851,1.192,6.791,3.888,7.102,7.154
				c0.467,4.976-7.88,9.486-11.664,11.664c-13.219,7.672-22.55,20.684-34.317,30.429c-16.174,13.426-28.304,29.081-52.512,60.288
				c-21.461,27.682-32.192,41.523-39.553,53.757c-14.411,24.157-20.062,40.382-34.317,42.819
				C733.899,696.862,732.862,696.396,710.313,687.946z M826.949,744.295c-1.866-3.525,8.813-9.279,7.776-18.143
				c-0.415-3.422-2.644-7.361-5.858-8.398c-2.333-0.726-5.028,0-16.225,9.072c-8.19,6.687-12.389,10.109-18.144,16.225
				c-5.391,5.702-6.428,7.776-11.612,12.286c-6.584,5.65-10.42,7.154-13.634,7.776c-3.421,0.674-6.117,0.363-9.072,0
				c-1.918-0.208-8.035-0.933-13.582-3.888c-9.59-5.08-16.588-16.277-14.307-19.439c1.97-2.644,8.605,2.851,20.113,0.674
				c5.806-1.141,10.005-3.681,13.582-5.858c5.962-3.577,10.783-6.532,13.634-12.286c2.851-5.806,2.385-11.664,1.918-16.899
				c-0.57-7.361-2.385-8.502-1.918-12.96c0.726-6.532,5.443-11.094,9.694-14.878c11.871-10.523,21.772-16.692,31.777-23.327
				c14.463-9.642,18.713-13.374,30.429-19.439c18.247-9.383,21.669-7.361,22.705-6.48c3.732,3.11,1.296,11.716-1.296,20.735
				c-4.717,16.588-12.493,28.2-13.634,29.807c-10.731,15.759-20.995,21.72-18.766,26.541c1.296,2.851,6.013,3.577,9.072,3.266
				c2.436-0.259,6.169-1.452,17.469-16.226c6.532-8.45,8.502-12.234,14.307-15.552c3.577-2.022,6.532-4.303,8.398-3.214
				c4.251,2.54-0.311,20.632-8.398,34.317c-4.044,6.791-8.087,11.042-16.225,19.491c-12.286,12.752-18.558,15.5-22.653,16.796
				C836.591,746.213,828.4,747.146,826.949,744.295z M953.954,767.622c-0.674,2.955-1.555,5.391-7.776,16.899
				c-6.376,11.664-9.59,17.47-11.716,19.388c-9.642,8.968-22.29,9.124-23.949,9.124c-4.199-0.052-10.627-2.644-23.327-7.776
				c-6.998-2.903-13.53-6.273-26.541-12.96c-7.102-3.681-10.109-5.391-11.716-9.124c-2.177-5.132,0-10.575,1.97-15.552
				c3.577-8.968,9.331-14.93,12.96-18.143c8.605-7.517,17.47-10.16,24.623-12.286c4.51-1.348,10.575-3.111,18.817-3.266
				c9.331-0.156,16.018,1.918,24.571,4.562c11.819,3.629,17.729,5.443,20.735,10.368
				C956.546,755.232,954.887,763.06,953.954,767.622z M987.649,643.209c-3.703,5.462-9.639,7.122-12.196,7.636
				c-0.544,0.109-1.045,0.323-1.511,0.625c-5.512,3.573-11.022,7.068-16.492,10.639c-0.596,0.389-1.096,0.908-1.463,1.517
				c-2.382,3.955-4.73,7.942-7.074,11.899c-0.531,0.896-1.34,1.611-2.32,1.961c-4.441,1.585-6.492,1.029-7.569,0.092
				c-4.095-3.473,3.421-14.359-1.296-27.215c-0.583-1.59-1.18-2.746-1.743-3.585c-1.373-2.045-4.303-2.56-6.272-1.079
				c-1.774,1.335-3.352,3.543-4.271,5.286c-3.836,6.998-0.104,11.197-3.94,19.491c-1.089,2.333-2.488,5.391-5.806,7.102
				c-4.821,2.488-10.057,0.414-10.99,0c-3.214-1.296-8.294-4.355-7.776-7.102c0.518-3.111,7.309-1.607,11.612-6.532
				c4.769-5.288,3.007-14.256,1.97-19.388c-0.726-3.733-1.503-7.724-4.562-11.716c-3.354-4.404-7.906-6.658-11.68-7.816
				c-3.076-0.943-4.229-4.766-2.202-7.264c2.365-2.915,5.436-6.05,9.372-8.87c12.338-8.813,25.142-9.02,43.389-9.072
				c19.491-0.052,30.896-0.052,38.257,8.45c6.169,7.102,6.895,17.21,7.154,20.061C990.552,633.205,990.966,638.337,987.649,643.209z
				 M1018.752,577.167c-7.621,11.042-29.444-3.318-58.37,6.428c-3.836,1.348-12.701,4.717-17.47,0.674
				c-2.696-2.281-3.059-6.065-3.266-7.776c-0.674-7.309,3.94-9.797,6.532-20.061c1.089-4.562,2.903-11.819-0.674-14.93
				c-2.54-2.229-7.206-1.918-10.368,0c-3.784,2.281-4.147,6.221-7.102,16.174c-3.37,11.197-5.132,16.796-8.45,19.491
				c-2.631,2.051-7.066,3.719-15.185,2.231c-2.427-0.445-4.042-2.776-3.672-5.215c2.524-16.642,9.739-46.096,32.49-70.938
				c14.878-16.277,32.503-26.282,38.879-29.755c9.354-5.21,18.047-8.887,25.324-11.489c3.086-1.104,6.269,1.25,6.199,4.527
				c-0.901,42.461,6.013,70.315,13.162,88.557C1018.959,560.631,1023.21,570.584,1018.752,577.167z"/>
			<path fill="#FFFFFF" d="M672.488,417.954c-8.324-8.596-6.023-21.526-8.208-21.599c-1.837-0.062-3.636,9.081-4.32,13.824
				c-0.327,2.267-0.77,6.098-0.432,18.143c0.435,15.502,1.39,17.062,2.592,18.144c5.321,4.79,15.747,0.457,16.848,0
				c2.875-1.194,7.98-3.316,9.072-7.776c1.179-4.817-3.014-9.541-6.048-12.96C677.728,420.926,675.811,421.385,672.488,417.954z"/>
			<path fill="#FFFFFF" d="M666.872,470.224c-0.218-5.24-5.629-8.925-6.48-9.504c-6.971-4.746-12.292-0.866-15.984-4.752
				c-2.798-2.945-2.009-8.155-0.432-18.576c1.474-9.736,2.937-10.709,3.456-17.711c0.549-7.402,1.122-15.142-3.456-19.007
				c-5.327-4.498-14.668-1.247-20.735,0.864c-9.683,3.37-15.498,9.302-17.28,11.232c-6.042,6.545-8.159,13.067-10.368,19.871
				c-2.249,6.928-5.898,18.168-2.16,20.735c3.294,2.263,11.746-2.609,16.416-8.64c2.041-2.636,1.615-3.239,6.912-14.688
				c4.059-8.773,5.368-10.707,7.776-12.096c3.737-2.156,9.464-2.62,11.664,0c2.809,3.345-1.061,10.617-3.456,15.12
				c-4.034,7.58-7.07,8.909-10.368,13.824c-6.759,10.071-8.581,26.206-1.728,36.719c2.073,3.181,6.382,6.07,15.12,11.664
				c11.842,7.582,16.088,7.045,18.144,6.48c0.902-0.248,3.668-1.008,5.616-3.456c3.841-4.828-0.674-9.723,2.16-17.712
				C663.705,474.906,667.046,474.415,666.872,470.224z"/>
			<path fill="#FFFFFF" d="M631.534,347.792c-8.461,0.552-20.136,1.442-32.792,8.502c-17.733,9.892-25.632,25.335-29.756,33.4
				c-3.185,6.227-15.904,32.836-7.894,63.763c1.457,5.628,3.323,11.444,5.356,16.705c0.144,6.86,2.13,12.884,4.092,18.638
				c4.07,11.937,6.886,12.036,16.847,33.695c3.095,6.729,6.294,12.891,9.317,19.847c1.944,4.473,3.625,7.441,8.051,12.822
				c4.277,5.2,6.044,6.132,11.48,10.734c3.066,2.596,9.752,6.36,13.716,8.647c3.195,1.844,5.994,3.164,11.927,3.392
				c3.876,0.149,11.688-0.668,14.163-1.025c4.51-0.652,12.136-4.166,14.909-6.466c2.616-2.17,5.212-4.797,6.15-7.715
				c1.416-4.405,2.19-9.213,1.005-13.019c-4.006-12.861-13.151-23.008-15.12-22.031c-1.743,0.864,1.007,11.028,1.296,12.096
				c1.093,4.037,1.999,5.328,2.16,8.64c0.115,2.365,0.29,5.963-1.728,8.64c-3.255,4.317-10.349,3.762-14.256,3.456
				c-6.921-0.542-12.233-3.194-15.552-5.184c-4.688-2.81-11.101-7.715-20.304-21.599c-8.614-12.996-6.443-13.9-15.551-28.511
				c-8.693-13.944-11.598-14.609-14.688-23.759c-0.964-2.853-1.654-5.684-2.159-8.344c-0.036-2.774-0.097-5.58-0.061-8.116
				c0.299-21.219-4.656-20.647-3.036-39.675c1.22-14.341,4.223-26.979,10.526-35.626c9.91-13.595,22.339-21.309,36.841-22.267
				c11.071-0.731,33.739,0.859,46.962,12.55c7.779,6.878,12.806,15.23,14.808,14.574c3.214-1.053,2.583-17.796-9.558-30.768
				C666.957,351.252,646.498,346.815,631.534,347.792z"/>
		</g>
	</g>
</g>
</svg>
